<svg xmlns="http://www.w3.org/2000/svg" xmlns:xlink="http://www.w3.org/1999/xlink" width="42" height="42" viewBox="0 0 42 42">
  <defs>
    <rect id="rect-1" width="42" height="42" x="0" y="0"/>
    <mask id="mask-2" maskContentUnits="userSpaceOnUse" maskUnits="userSpaceOnUse">
      <rect width="42" height="42" x="0" y="0" fill="black"/>
      <use fill="white" xlink:href="#rect-1"/>
    </mask>
  </defs>
  <g>
    <use fill="none" xlink:href="#rect-1"/>
    <g mask="url(#mask-2)">
      <path fill="rgb(0,50,61)" fill-rule="evenodd" d="M4.46250153 5.01373291C3.39149857 6.12939453 2.625 7.54425049 2.625 9.1875v23.625c0 1.64324951.76649857 3.05810547 1.83750153 4.1763916 1.06575012 1.10247803 2.5094986 2.01074219 4.14487457 2.72998047C11.87812424 41.15997314 16.26187515 42 21 42c4.74074936 0 9.12450027-.84002686 12.3926239-2.28112793 1.63537598-.71923828 3.07912445-1.62487793 4.14487457-2.73260498C38.60850525 35.87060547 39.375 34.45574951 39.375 32.8125V9.1875c0-1.64324951-.76649475-3.05810547-1.83750153-4.1763916-1.06575012-1.10247803-2.5094986-2.01074219-4.14225006-2.72998047C30.12187576.84002686 25.73812485 0 21 0c-4.73812485 0-9.12187576.84002686-12.3926239 2.28112793-1.63537598.71923828-3.07912445 1.62487793-4.14487457 2.73260498zm2.8402481 2.7300415C6.71474838 8.35272217 6.5625 8.83837891 6.5625 9.1875c0 .3491211.15224838.83477783.74024963 1.4463501.59587479.62213135 1.55137635 1.2678833 2.89012528 1.855896C12.8572502 13.66314696 16.6766243 14.4375 21 14.4375c4.32074738 0 8.14012527-.77435303 10.8097496-1.9477539 1.33349991-.5880127 2.2916298-1.23638917 2.88750077-1.85852051C35.2852478 10.02227783 35.4375 9.53662109 35.4375 9.1875c0-.3491211-.1522522-.83477783-.74024963-1.4463501-.59587098-.62213135-1.55137635-1.2678833-2.89012528-1.855896C29.1427498 4.71185304 25.3233757 3.9375 21 3.9375c-4.32075119 0-8.14012527.77435303-10.8097496 1.9477539-1.33349991.5880127-2.29162598 1.23638917-2.88750077 1.85852051zM6.5625 21v-5.9744873c.63262558.39373779 1.32037354.75073242 2.0448761 1.06835937C11.87812424 17.53503418 16.26187515 18.375 21 18.375s9.12187576-.83996582 12.39524841-2.28112793c.72187805-.31762695 1.4096222-.67462158 2.04225159-1.06835937V21c0 .3491211-.1522522.83477783-.74024963 1.44378662-.59587098.62213135-1.55400086 1.27044678-2.88750077 1.85845947C29.14012527 25.47564697 25.32074738 26.25 21 26.25c-4.3233757 0-8.14274979-.77435303-10.8071251-1.9477539-1.33874892-.5880127-2.29425048-1.23370362-2.89012527-1.85583497C6.71474838 21.83477783 6.5625 21.3491211 6.5625 21zm0 11.8125v-5.9718628c.65572357.40289307 1.33904648.75903321 2.0448761 1.06573487C11.87812424 29.34753418 16.26187515 30.1875 21 30.1875s9.12187576-.83996582 12.39524841-2.28112793c.72187805-.31762695 1.4096222-.67199707 2.04225159-1.06573486V32.8125c0 .3491211-.1522522.83477783-.74024963 1.44641113-.59587098.62207032-1.55137635 1.26782227-2.89012528 1.85583496C29.1427498 37.28814697 25.3233757 38.0625 21 38.0625s-8.14274979-.77435303-10.8097496-1.9477539c-1.33349991-.5880127-2.29162598-1.23632813-2.88750077-1.85845948C6.71474838 33.64727783 6.5625 33.1616211 6.5625 32.8125z"/>
    </g>
  </g>
</svg>
