<svg xmlns="http://www.w3.org/2000/svg" xmlns:xlink="http://www.w3.org/1999/xlink" width="42" height="42" viewBox="0 0 42 42">
  <defs>
    <rect id="rect-1" width="42" height="42" x="0" y="0"/>
    <rect id="rect-2" width="42" height="42" x="0" y="0"/>
    <mask id="mask-3" maskContentUnits="userSpaceOnUse" maskUnits="userSpaceOnUse">
      <rect width="42" height="42" x="0" y="0" fill="black"/>
      <use fill="white" xlink:href="#rect-2"/>
    </mask>
  </defs>
  <g>
    <use fill="none" xlink:href="#rect-2"/>
    <g mask="url(#mask-3)">
      <path fill="rgb(0,50,61)" fill-rule="evenodd" d="M1.96875 2.625c1.0873108 0 1.96875.8814392 1.96875 1.96875V35.4375h36.09375c1.0873108 0 1.96875.8814392 1.96875 1.96875s-.8814392 1.96875-1.96875 1.96875H1.96875C.88199997 39.375 0 38.49299622 0 37.40625V4.59375C0 3.5064392.8814392 2.625 1.96875 2.625zm39.40550232 5.87574768c.7497406.7497406.77106476 1.95854187.04824829 2.73425293l-13.78125 13.78126526c-.76864624.76768494-2.01385498.76768494-2.78250122 0L18.375 18.53250122l-7.13999939 7.14001465c-.77571487.72280884-1.98452759.70147705-2.73425674-.0482483-.74973298-.7497406-.77106095-1.95854186-.04824448-2.73425292l8.53125-8.53125c.76864624-.7677002 2.01385498-.7677002 2.78250122 0L26.25 20.84251404l12.38999939-12.3899994c.77571106-.72282409 1.98452759-.7014923 2.73425293.04823304z"/>
    </g>
  </g>
</svg>
